<?xml version="1.0" standalone="no"?>
<!DOCTYPE svg PUBLIC "-//W3C//DTD SVG 20010904//EN"
 "http://www.w3.org/TR/2001/REC-SVG-20010904/DTD/svg10.dtd">
<svg version="1.0" xmlns="http://www.w3.org/2000/svg"
 width="591.000000pt" height="591.000000pt" viewBox="0 0 591.000000 591.000000"
 preserveAspectRatio="xMidYMid meet">
<metadata>
Created by potrace 1.11, written by Peter Selinger 2001-2013
</metadata>
<g transform="translate(0.000000,591.000000) scale(0.100000,-0.100000)"
fill="#000000" stroke="none">
<path d="M2200 5735 c-118 -26 -213 -67 -316 -136 -40 -27 -80 -59 -91 -72
-10 -13 -24 -26 -30 -28 -39 -13 -200 -249 -187 -272 4 -7 3 -9 -1 -4 -15 13
-70 -144 -82 -235 -4 -29 -8 -110 -8 -180 l1 -128 -138 0 c-76 0 -138 -3 -138
-7 0 -5 -21 -9 -46 -10 -103 -5 -298 -89 -412 -177 -309 -239 -417 -658 -265
-1023 20 -49 39 -90 42 -93 3 -3 15 -22 25 -42 11 -21 23 -38 28 -38 4 0 8 -5
8 -11 0 -6 14 -29 31 -50 33 -42 34 -41 -21 -114 -50 -65 -84 -128 -120 -220
-39 -96 -51 -159 -51 -270 0 -168 65 -336 181 -469 53 -60 148 -144 156 -138
3 1 14 -7 27 -18 23 -22 171 -99 197 -104 8 -1 35 -9 60 -18 25 -9 56 -19 70
-22 22 -5 31 -23 78 -168 59 -177 144 -375 170 -396 10 -7 15 -15 13 -18 -5
-8 21 -64 30 -64 5 0 9 -6 9 -13 0 -43 338 -472 357 -453 3 3 18 -11 35 -29
35 -40 209 -175 226 -175 6 0 15 -6 19 -13 21 -35 296 -179 458 -240 100 -38
266 -90 290 -90 11 -1 22 -4 25 -8 3 -4 26 -13 51 -20 41 -11 57 -9 170 20
286 74 368 101 528 177 110 52 287 156 324 190 14 13 29 24 33 24 6 0 134 100
161 126 7 6 9 14 6 18 -4 3 1 6 9 6 18 0 174 165 248 263 66 87 157 232 172
274 7 18 16 33 21 33 4 0 5 5 2 10 -3 5 -1 10 5 10 6 0 9 4 6 9 -4 5 -3 11 2
13 20 8 128 276 173 431 14 47 28 77 37 77 7 0 11 4 8 8 -3 4 10 8 28 9 18 1
66 15 107 32 40 17 77 31 81 31 5 0 48 24 96 54 86 54 242 196 242 221 0 8 4
15 9 17 16 5 89 145 105 201 49 168 33 362 -41 522 -19 42 -73 136 -83 145 -3
3 -20 27 -38 54 -33 48 -33 48 -14 70 61 66 149 235 183 351 21 69 24 101 24
235 0 158 -12 230 -53 320 -8 19 -16 37 -17 40 -9 33 -18 49 -25 45 -5 -3 -8
3 -8 12 3 39 -132 198 -242 286 -59 46 -187 108 -293 139 -91 27 -120 31 -262
34 l-160 4 4 109 c11 331 -130 615 -402 812 -82 60 -231 119 -352 140 -98 17
-281 6 -370 -21 -83 -26 -215 -88 -215 -101 0 -5 -6 -9 -14 -9 -7 0 -25 -11
-39 -24 -14 -13 -28 -22 -30 -20 -2 2 -12 -5 -22 -16 -10 -11 -22 -20 -26 -20
-4 0 -39 23 -76 51 -83 62 -190 114 -292 141 -100 27 -299 34 -391 13z"/>
</g>
</svg>
